<?xml version="1.0" encoding="UTF-8"?>
<svg width="1366px" height="800px" viewBox="0 0 1366 800" version="1.1" xmlns="http://www.w3.org/2000/svg">
    <defs></defs>
    <g id="Page-1" stroke="none" stroke-width="1" fill="none" fill-rule="evenodd">
        <g id="Preloader-Copy-2" fill="#0f0d12">
            <path d="M-692,-600 L2058,-600 L2058,1400 L-692,1400 L-692,-600 Z M647.4824,435.517537 C657.141545,445.17247 669.821017,449.999936 682.504701,449.999936 C695.184173,449.999936 707.872069,445.17247 717.527002,435.517537 C736.836869,416.199245 736.836869,384.774376 717.527002,365.460297 C716.844586,364.773668 715.816748,364.575682 714.932134,364.959015 C714.63305,365.085389 714.371878,365.266524 714.157043,365.489784 C713.474626,366.180625 692.088023,387.563017 680.815509,398.843955 C679.88877,399.766482 679.88877,401.257689 680.815509,402.180215 C681.72961,403.102741 683.22503,403.102741 684.147556,402.180215 L715.816748,370.511023 C731.647132,388.081148 731.099513,415.264082 714.18653,432.177065 C696.721717,449.650303 668.291898,449.650303 650.822872,432.177065 C633.353846,414.703826 633.353846,386.269795 650.822872,368.796556 C658.729639,360.885577 669.231274,356.243458 680.390052,355.716902 C681.695911,355.657928 682.698474,354.554266 682.639499,353.248407 C682.576313,351.950973 681.468439,350.935772 680.171004,351.003172 C667.832741,351.58449 656.223232,356.715253 647.4824,365.460297 C628.172533,384.774376 628.172533,416.199245 647.4824,435.517537 Z"
                  id="logoMask2"></path>
        </g>
    </g>
</svg>
